KRS.PY-Black Wide.ufo
<glyph name="zero" format="1">
  <advance width="1785"/>
  <unicode hex="0030"/>
  <outline>
    <contour>
      <point x="64" y="0" type="line"/>
      <point x="1721" y="0" type="line"/>
      <point x="1721" y="750" type="line"/>
      <point x="64" y="750" type="line"/>
    </contour>
    <contour>
      <point x="504" y="159" type="line"/>
      <point x="504" y="591" type="line"/>
      <point x="1281" y="591" type="line"/>
      <point x="1281" y="159" type="line"/>
    </contour>
  </outline>
</glyph>
<glyph name="one" format="1">
  <advance width="1174"/>
  <unicode hex="0031"/>
  <outline>
    <contour>
      <point x="103" y="0" type="line"/>
      <point x="1145" y="0" type="line"/>
      <point x="1145" y="162" type="line"/>
      <point x="844" y="162" type="line"/>
      <point x="844" y="750" type="line"/>
      <point x="99" y="750" type="line"/>
      <point x="99" y="588" type="line"/>
      <point x="404" y="588" type="line"/>
      <point x="404" y="162" type="line"/>
      <point x="103" y="162" type="line"/>
    </contour>
  </outline>
</glyph>
<glyph name="two" format="1">
  <advance width="1609"/>
  <unicode hex="0032"/>
  <outline>
    <contour>
      <point x="66" y="0" type="line"/>
      <point x="1570" y="0" type="line"/>
      <point x="1570" y="138" type="line"/>
      <point x="1130" y="138" type="line"/>
      <point x="1130" y="137" type="line"/>
      <point x="506" y="137" type="line"/>
      <point x="505" y="293" type="line"/>
      <point x="1560" y="293" type="line"/>
      <point x="1560" y="750" type="line"/>
      <point x="80" y="750" type="line"/>
      <point x="80" y="602" type="line"/>
      <point x="1120" y="602" type="line"/>
      <point x="1120" y="476" type="line"/>
      <point x="66" y="476" type="line"/>
    </contour>
  </outline>
</glyph>
<glyph name="three" format="1">
  <advance width="1660"/>
  <unicode hex="0033"/>
  <outline>
    <contour>
      <point x="158" y="0" type="line"/>
      <point x="1559" y="0" type="line"/>
      <point x="1559" y="403" type="line"/>
      <point x="1174" y="403" type="line"/>
      <point x="1174" y="420" type="line"/>
      <point x="1508" y="497" type="line"/>
      <point x="1508" y="750" type="line"/>
      <point x="178" y="750" type="line"/>
      <point x="178" y="591" type="line"/>
      <point x="530" y="591" type="line"/>
      <point x="530" y="591" type="line"/>
      <point x="1043" y="591" type="line"/>
      <point x="1043" y="449" type="line"/>
      <point x="845" y="403" type="line"/>
      <point x="461" y="403" type="line"/>
      <point x="461" y="308" type="line"/>
      <point x="1119" y="308" type="line"/>
      <point x="1119" y="159" type="line"/>
      <point x="510" y="159" type="line"/>
      <point x="510" y="160" type="line"/>
      <point x="158" y="160" type="line"/>
    </contour>
  </outline>
</glyph>
<glyph name="four" format="1">
  <advance width="1714"/>
  <unicode hex="0034"/>
  <outline>
    <contour>
      <point x="1075" y="1" type="line"/>
      <point x="1514" y="0" type="line"/>
      <point x="1514" y="271" type="line"/>
      <point x="1680" y="271" type="line"/>
      <point x="1680" y="407" type="line"/>
      <point x="1514" y="407" type="line"/>
      <point x="1514" y="650" type="line"/>
      <point x="1075" y="650" type="line"/>
      <point x="1075" y="407" type="line"/>
      <point x="469" y="407" type="line"/>
      <point x="468" y="425" type="line"/>
      <point x="690" y="750" type="line"/>
      <point x="257" y="750" type="line"/>
      <point x="29" y="420" type="line"/>
      <point x="29" y="271" type="line"/>
      <point x="1075" y="271" type="line"/>
    </contour>
  </outline>
</glyph>
<glyph name="five" format="1">
  <advance width="1711"/>
  <unicode hex="0035"/>
  <outline>
    <contour>
      <point x="88" y="0" type="line"/>
      <point x="1495" y="0" type="line"/>
      <point x="1659" y="178" type="line"/>
      <point x="1659" y="450" type="line"/>
      <point x="528" y="450" type="line"/>
      <point x="528" y="588" type="line"/>
      <point x="1654" y="588" type="line"/>
      <point x="1654" y="750" type="line"/>
      <point x="88" y="750" type="line"/>
      <point x="88" y="297" type="line"/>
      <point x="1252" y="297" type="line"/>
      <point x="1252" y="254" type="line"/>
      <point x="1157" y="159" type="line"/>
      <point x="528" y="159" type="line"/>
      <point x="528" y="159" type="line"/>
      <point x="88" y="159" type="line"/>
    </contour>
  </outline>
</glyph>
<glyph name="six" format="1">
  <advance width="1712"/>
  <unicode hex="0036"/>
  <outline>
    <contour>
      <point x="67" y="0" type="line"/>
      <point x="1668" y="0" type="line"/>
      <point x="1668" y="400" type="line"/>
      <point x="507" y="400" type="line"/>
      <point x="507" y="423" type="line"/>
      <point x="597" y="591" type="line"/>
      <point x="1179" y="591" type="line"/>
      <point x="1179" y="591" type="line"/>
      <point x="1649" y="591" type="line"/>
      <point x="1649" y="750" type="line"/>
      <point x="231" y="750" type="line"/>
      <point x="67" y="486" type="line"/>
    </contour>
    <contour>
      <point x="507" y="159" type="line"/>
      <point x="507" y="291" type="line"/>
      <point x="1228" y="291" type="line"/>
      <point x="1228" y="159" type="line"/>
    </contour>
  </outline>
</glyph>
<glyph name="seven" format="1">
  <advance width="1526"/>
  <unicode hex="0037"/>
  <outline>
    <contour>
      <point x="522" y="0" type="line"/>
      <point x="915" y="0" type="line"/>
      <point x="1499" y="552" type="line"/>
      <point x="1499" y="750" type="line"/>
      <point x="62" y="750" type="line"/>
      <point x="62" y="423" type="line"/>
      <point x="491" y="423" type="line"/>
      <point x="491" y="588" type="line"/>
      <point x="1059" y="588" type="line"/>
      <point x="1059" y="554" type="line"/>
    </contour>
  </outline>
</glyph>
<glyph name="eight" format="1">
  <advance width="1591"/>
  <unicode hex="0038"/>
  <outline>
    <contour>
      <point x="32" y="0" type="line"/>
      <point x="1559" y="0" type="line"/>
      <point x="1559" y="288" type="line"/>
      <point x="1269" y="366" type="line"/>
      <point x="1269" y="381" type="line"/>
      <point x="1539" y="427" type="line"/>
      <point x="1539" y="750" type="line"/>
      <point x="52" y="750" type="line"/>
      <point x="52" y="427" type="line"/>
      <point x="326" y="381" type="line"/>
      <point x="326" y="366" type="line"/>
      <point x="32" y="288" type="line"/>
    </contour>
    <contour>
      <point x="471" y="155" type="line"/>
      <point x="471" y="295" type="line"/>
      <point x="573" y="328" type="line"/>
      <point x="1021" y="328" type="line"/>
      <point x="1119" y="294" type="line"/>
      <point x="1119" y="155" type="line"/>
    </contour>
    <contour>
      <point x="576" y="423" type="line"/>
      <point x="472" y="454" type="line"/>
      <point x="472" y="595" type="line"/>
      <point x="1118" y="595" type="line"/>
      <point x="1118" y="454" type="line"/>
      <point x="1019" y="423" type="line"/>
    </contour>
  </outline>
</glyph>
<glyph name="nine" format="1">
  <advance width="1782"/>
  <unicode hex="0039"/>
  <outline>
    <contour>
      <point x="71" y="1" type="line"/>
      <point x="1723" y="1" type="line"/>
      <point x="1723" y="492" type="line"/>
      <point x="1426" y="751" type="line"/>
      <point x="92" y="751" type="line"/>
      <point x="92" y="284" type="line"/>
      <point x="1283" y="284" type="line"/>
      <point x="1283" y="160" type="line"/>
      <point x="511" y="160" type="line"/>
      <point x="511" y="160" type="line"/>
      <point x="71" y="160" type="line"/>
    </contour>
    <contour>
      <point x="532" y="405" type="line"/>
      <point x="532" y="601" type="line"/>
      <point x="1093" y="601" type="line"/>
      <point x="1283" y="455" type="line"/>
      <point x="1283" y="405" type="line"/>
    </contour>
  </outline>
</glyph>
<glyph name="A" format="1">
  <advance width="1891"/>
  <unicode hex="0041"/>
  <outline>
    <contour>
      <point x="59" y="0" type="line"/>
      <point x="499" y="0" type="line"/>
      <point x="499" y="236" type="line"/>
      <point x="1387" y="236" type="line"/>
      <point x="1387" y="0" type="line"/>
      <point x="1827" y="0" type="line"/>
      <point x="1827" y="750" type="line"/>
      <point x="249" y="750" type="line"/>
      <point x="59" y="477" type="line"/>
    </contour>
    <contour>
      <point x="499" y="397" type="line"/>
      <point x="499" y="475" type="line"/>
      <point x="584" y="601" type="line"/>
      <point x="1387" y="601" type="line"/>
      <point x="1387" y="397" type="line"/>
    </contour>
  </outline>
</glyph>
<glyph name="C" format="1">
  <advance width="1885"/>
  <unicode hex="0043"/>
  <outline>
    <contour>
      <point x="59" y="0" type="line"/>
      <point x="1827" y="0" type="line"/>
      <point x="1827" y="263" type="line"/>
      <point x="1387" y="263" type="line"/>
      <point x="1387" y="139" type="line"/>
      <point x="499" y="139" type="line"/>
      <point x="499" y="348" type="line"/>
      <point x="683" y="612" type="line"/>
      <point x="1386" y="612" type="line"/>
      <point x="1386" y="431" type="line"/>
      <point x="1826" y="431" type="line"/>
      <point x="1826" y="751" type="line"/>
      <point x="318" y="751" type="line"/>
      <point x="59" y="373" type="line"/>
    </contour>
  </outline>
</glyph>
<glyph name="D" format="1">
  <advance width="1891"/>
  <unicode hex="0044"/>
  <outline>
    <contour>
      <point x="64" y="0" type="line"/>
      <point x="1832" y="0" type="line"/>
      <point x="1832" y="425" type="line"/>
      <point x="1453" y="750" type="line"/>
      <point x="64" y="750" type="line"/>
    </contour>
    <contour>
      <point x="504" y="156" type="line"/>
      <point x="504" y="594" type="line"/>
      <point x="1111" y="594" type="line"/>
      <point x="1392" y="368" type="line"/>
      <point x="1392" y="156" type="line"/>
    </contour>
  </outline>
</glyph>
<glyph name="E" format="1">
  <advance width="1660"/>
  <unicode hex="0045"/>
  <outline>
    <contour>
      <point x="64" y="0" type="line"/>
      <point x="1616" y="0" type="line"/>
      <point x="1616" y="172" type="line"/>
      <point x="1266" y="172" type="line"/>
      <point x="1266" y="172" type="line"/>
      <point x="504" y="172" type="line"/>
      <point x="504" y="296" type="line"/>
      <point x="1439" y="296" type="line"/>
      <point x="1439" y="448" type="line"/>
      <point x="504" y="448" type="line"/>
      <point x="504" y="574" type="line"/>
      <point x="1265" y="574" type="line"/>
      <point x="1265" y="574" type="line"/>
      <point x="1615" y="574" type="line"/>
      <point x="1615" y="750" type="line"/>
      <point x="64" y="750" type="line"/>
    </contour>
  </outline>
</glyph>
<glyph name="F" format="1">
  <advance width="1618"/>
  <unicode hex="0046"/>
  <outline>
    <contour>
      <point x="79" y="0" type="line"/>
      <point x="519" y="0" type="line"/>
      <point x="519" y="249" type="line"/>
      <point x="1294" y="249" type="line"/>
      <point x="1294" y="386" type="line"/>
      <point x="519" y="386" type="line"/>
      <point x="519" y="594" type="line"/>
      <point x="1366" y="594" type="line"/>
      <point x="1366" y="594" type="line"/>
      <point x="1602" y="594" type="line"/>
      <point x="1602" y="750" type="line"/>
      <point x="79" y="750" type="line"/>
    </contour>
  </outline>
</glyph>
<glyph name="G" format="1">
  <advance width="1876"/>
  <unicode hex="0047"/>
  <outline>
    <contour>
      <point x="49" y="0" type="line"/>
      <point x="1820" y="0" type="line"/>
      <point x="1820" y="424" type="line"/>
      <point x="929" y="424" type="line"/>
      <point x="929" y="310" type="line"/>
      <point x="1380" y="310" type="line"/>
      <point x="1380" y="156" type="line"/>
      <point x="489" y="156" type="line"/>
      <point x="489" y="359" type="line"/>
      <point x="678" y="594" type="line"/>
      <point x="1380" y="594" type="line"/>
      <point x="1380" y="594" type="line"/>
      <point x="1810" y="594" type="line"/>
      <point x="1810" y="750" type="line"/>
      <point x="281" y="750" type="line"/>
      <point x="49" y="459" type="line"/>
    </contour>
  </outline>
</glyph>
<glyph name="H" format="1">
  <advance width="1895"/>
  <unicode hex="0048"/>
  <outline>
    <contour>
      <point x="79" y="0" type="line"/>
      <point x="519" y="0" type="line"/>
      <point x="519" y="288" type="line"/>
      <point x="1407" y="288" type="line"/>
      <point x="1407" y="0" type="line"/>
      <point x="1846" y="0" type="line"/>
      <point x="1846" y="750" type="line"/>
      <point x="1407" y="750" type="line"/>
      <point x="1407" y="448" type="line"/>
      <point x="519" y="448" type="line"/>
      <point x="519" y="750" type="line"/>
      <point x="79" y="750" type="line"/>
    </contour>
  </outline>
</glyph>
<glyph name="I" format="1">
  <advance width="572"/>
  <unicode hex="0049"/>
  <outline>
    <contour>
      <point x="66" y="0" type="line"/>
      <point x="506" y="0" type="line"/>
      <point x="506" y="750" type="line"/>
      <point x="66" y="750" type="line"/>
    </contour>
  </outline>
</glyph>
<glyph name="J" format="1">
  <advance width="1793"/>
  <unicode hex="004A"/>
  <outline>
    <contour>
      <point x="211" y="0" type="line"/>
      <point x="1729" y="0" type="line"/>
      <point x="1729" y="750" type="line"/>
      <point x="111" y="750" type="line"/>
      <point x="111" y="594" type="line"/>
      <point x="1289" y="594" type="line"/>
      <point x="1289" y="156" type="line"/>
      <point x="581" y="156" type="line"/>
      <point x="486" y="379" type="line"/>
      <point x="36" y="379" type="line"/>
    </contour>
  </outline>
</glyph>
<glyph name="K" format="1">
  <advance width="1865"/>
  <unicode hex="004B"/>
  <outline>
    <contour>
      <point x="64" y="0" type="line"/>
      <point x="504" y="0" type="line"/>
      <point x="504" y="293" type="line"/>
      <point x="1201" y="295" type="line"/>
      <point x="1394" y="249" type="line"/>
      <point x="1394" y="0" type="line"/>
      <point x="1834" y="0" type="line"/>
      <point x="1834" y="314" type="line"/>
      <point x="1405" y="372" type="line"/>
      <point x="1405" y="400" type="line"/>
      <point x="1809" y="492" type="line"/>
      <point x="1809" y="750" type="line"/>
      <point x="1369" y="750" type="line"/>
      <point x="1369" y="518" type="line"/>
      <point x="1189" y="462" type="line"/>
      <point x="504" y="462" type="line"/>
      <point x="504" y="750" type="line"/>
      <point x="64" y="750" type="line"/>
    </contour>
  </outline>
</glyph>
<glyph name="L" format="1">
  <advance width="1718"/>
  <unicode hex="004C"/>
  <outline>
    <contour>
      <point x="123" y="0" type="line"/>
      <point x="1698" y="0" type="line"/>
      <point x="1698" y="358" type="line"/>
      <point x="1258" y="358" type="line"/>
      <point x="1258" y="156" type="line"/>
      <point x="563" y="156" type="line"/>
      <point x="563" y="750" type="line"/>
      <point x="123" y="750" type="line"/>
    </contour>
  </outline>
</glyph>
<glyph name="M" format="1">
  <advance width="2105"/>
  <unicode hex="004D"/>
  <outline>
    <contour>
      <point x="64" y="0" type="line"/>
      <point x="504" y="0" type="line"/>
      <point x="504" y="583" type="line"/>
      <point x="549" y="583" type="line"/>
      <point x="789" y="96" type="line"/>
      <point x="1319" y="96" type="line"/>
      <point x="1556" y="584" type="line"/>
      <point x="1601" y="584" type="line"/>
      <point x="1601" y="0" type="line"/>
      <point x="2041" y="0" type="line"/>
      <point x="2041" y="750" type="line"/>
      <point x="1266" y="750" type="line"/>
      <point x="1067" y="272" type="line"/>
      <point x="1038" y="272" type="line"/>
      <point x="839" y="750" type="line"/>
      <point x="64" y="750" type="line"/>
    </contour>
  </outline>
</glyph>
<glyph name="P" format="1">
  <advance width="1890"/>
  <unicode hex="0050"/>
  <outline>
    <contour>
      <point x="123" y="0" type="line"/>
      <point x="563" y="0" type="line"/>
      <point x="563" y="244" type="line"/>
      <point x="1836" y="338" type="line"/>
      <point x="1836" y="750" type="line"/>
      <point x="123" y="750" type="line"/>
    </contour>
    <contour>
      <point x="563" y="382" type="line"/>
      <point x="563" y="594" type="line"/>
      <point x="1396" y="594" type="line"/>
      <point x="1396" y="426" type="line"/>
    </contour>
  </outline>
</glyph>
<glyph name="Q" format="1">
  <advance width="1893"/>
  <unicode hex="0051"/>
  <outline>
    <contour>
      <point x="59" y="0" type="line"/>
      <point x="1829" y="0" type="line"/>
      <point x="1829" y="750" type="line"/>
      <point x="281" y="750" type="line"/>
      <point x="59" y="406" type="line"/>
    </contour>
    <contour>
      <point x="880" y="-213" type="line"/>
      <point x="1288" y="-213" type="line"/>
      <point x="1179" y="60" type="line"/>
      <point x="773" y="60" type="line"/>
    </contour>
    <contour>
      <point x="499" y="156" type="line"/>
      <point x="499" y="353" type="line"/>
      <point x="659" y="594" type="line"/>
      <point x="1390" y="594" type="line"/>
      <point x="1390" y="156" type="line"/>
    </contour>
  </outline>
</glyph>
<glyph name="R" format="1">
  <advance width="1861"/>
  <unicode hex="0052"/>
  <outline>
    <contour>
      <point x="64" y="0" type="line"/>
      <point x="504" y="0" type="line"/>
      <point x="504" y="291" type="line"/>
      <point x="1160" y="293" type="line"/>
      <point x="1391" y="245" type="line"/>
      <point x="1391" y="0" type="line"/>
      <point x="1830" y="0" type="line"/>
      <point x="1830" y="300" type="line"/>
      <point x="1412" y="357" type="line"/>
      <point x="1412" y="371" type="line"/>
      <point x="1805" y="443" type="line"/>
      <point x="1805" y="750" type="line"/>
      <point x="64" y="750" type="line"/>
    </contour>
    <contour>
      <point x="504" y="417" type="line"/>
      <point x="504" y="594" type="line"/>
      <point x="1366" y="594" type="line"/>
      <point x="1366" y="451" type="line"/>
      <point x="1192" y="417" type="line"/>
    </contour>
  </outline>
</glyph>
<glyph name="S" format="1">
  <advance width="1592"/>
  <unicode hex="0053"/>
  <outline>
    <contour>
      <point x="43" y="0" type="line"/>
      <point x="1552" y="0" type="line"/>
      <point x="1552" y="431" type="line"/>
      <point x="481" y="431" type="line"/>
      <point x="481" y="431" type="line"/>
      <point x="637" y="608" type="line"/>
      <point x="1095" y="608" type="line"/>
      <point x="1095" y="608" type="line"/>
      <point x="1535" y="608" type="line"/>
      <point x="1535" y="750" type="line"/>
      <point x="265" y="750" type="line"/>
      <point x="41" y="472" type="line"/>
      <point x="41" y="285" type="line"/>
      <point x="1112" y="285" type="line"/>
      <point x="1112" y="153" type="line"/>
      <point x="483" y="153" type="line"/>
      <point x="483" y="153" type="line"/>
      <point x="43" y="153" type="line"/>
    </contour>
  </outline>
</glyph>
<glyph name="T" format="1">
  <advance width="1919"/>
  <unicode hex="0054"/>
  <outline>
    <contour>
      <point x="739" y="0" type="line"/>
      <point x="1179" y="0" type="line"/>
      <point x="1179" y="603" type="line"/>
      <point x="1467" y="603" type="line"/>
      <point x="1467" y="377" type="line"/>
      <point x="1849" y="377" type="line"/>
      <point x="1849" y="750" type="line"/>
      <point x="70" y="750" type="line"/>
      <point x="70" y="377" type="line"/>
      <point x="451" y="377" type="line"/>
      <point x="451" y="603" type="line"/>
      <point x="739" y="603" type="line"/>
    </contour>
  </outline>
</glyph>
<glyph name="U" format="1">
  <advance width="1880"/>
  <unicode hex="0055"/>
  <outline>
    <contour>
      <point x="1816" y="0" type="line"/>
      <point x="1816" y="750" type="line"/>
      <point x="1376" y="750" type="line"/>
      <point x="1376" y="159" type="line"/>
      <point x="702" y="159" type="line"/>
      <point x="488" y="311" type="line"/>
      <point x="488" y="750" type="line"/>
      <point x="48" y="750" type="line"/>
      <point x="48" y="253" type="line"/>
      <point x="402" y="0" type="line"/>
    </contour>
  </outline>
</glyph>
<glyph name="V" format="1">
  <advance width="1879"/>
  <unicode hex="0056"/>
  <outline>
    <contour>
      <point x="64" y="0" type="line"/>
      <point x="1487" y="0" type="line"/>
      <point x="1831" y="226" type="line"/>
      <point x="1831" y="750" type="line"/>
      <point x="1392" y="750" type="line"/>
      <point x="1392" y="293" type="line"/>
      <point x="1162" y="159" type="line"/>
      <point x="504" y="159" type="line"/>
      <point x="504" y="750" type="line"/>
      <point x="64" y="750" type="line"/>
    </contour>
  </outline>
</glyph>
<glyph name="W" format="1">
  <advance width="2647"/>
  <unicode hex="0057"/>
  <outline>
    <contour>
      <point x="275" y="0" type="line"/>
      <point x="1135" y="0" type="line"/>
      <point x="1320" y="211" type="line"/>
      <point x="1326" y="211" type="line"/>
      <point x="1516" y="0" type="line"/>
      <point x="2375" y="0" type="line"/>
      <point x="2599" y="217" type="line"/>
      <point x="2599" y="750" type="line"/>
      <point x="2159" y="750" type="line"/>
      <point x="2159" y="266" type="line"/>
      <point x="2027" y="159" type="line"/>
      <point x="1662" y="159" type="line"/>
      <point x="1531" y="312" type="line"/>
      <point x="1531" y="750" type="line"/>
      <point x="1114" y="750" type="line"/>
      <point x="1114" y="312" type="line"/>
      <point x="989" y="159" type="line"/>
      <point x="623" y="159" type="line"/>
      <point x="488" y="266" type="line"/>
      <point x="488" y="750" type="line"/>
      <point x="48" y="750" type="line"/>
      <point x="48" y="217" type="line"/>
    </contour>
  </outline>
</glyph>
<glyph name="X" format="1">
  <advance width="1887"/>
  <unicode hex="0058"/>
  <outline>
    <contour>
      <point x="59" y="0" type="line"/>
      <point x="499" y="0" type="line"/>
      <point x="499" y="257" type="line"/>
      <point x="706" y="285" type="line"/>
      <point x="1196" y="285" type="line"/>
      <point x="1388" y="257" type="line"/>
      <point x="1388" y="0" type="line"/>
      <point x="1828" y="0" type="line"/>
      <point x="1828" y="305" type="line"/>
      <point x="1416" y="367" type="line"/>
      <point x="1416" y="383" type="line"/>
      <point x="1813" y="454" type="line"/>
      <point x="1813" y="750" type="line"/>
      <point x="1373" y="750" type="line"/>
      <point x="1373" y="495" type="line"/>
      <point x="1196" y="456" type="line"/>
      <point x="706" y="456" type="line"/>
      <point x="513" y="500" type="line"/>
      <point x="513" y="750" type="line"/>
      <point x="73" y="750" type="line"/>
      <point x="73" y="455" type="line"/>
      <point x="486" y="383" type="line"/>
      <point x="486" y="366" type="line"/>
      <point x="59" y="303" type="line"/>
    </contour>
  </outline>
</glyph>
<glyph name="I.alt1" format="1">
  <advance width="1481"/>
  <outline>
    <contour>
      <point x="67" y="0" type="line"/>
      <point x="1414" y="0" type="line"/>
      <point x="1414" y="148" type="line"/>
      <point x="960" y="148" type="line"/>
      <point x="960" y="602" type="line"/>
      <point x="1414" y="602" type="line"/>
      <point x="1414" y="750" type="line"/>
      <point x="67" y="750" type="line"/>
      <point x="67" y="602" type="line"/>
      <point x="521" y="602" type="line"/>
      <point x="521" y="148" type="line"/>
      <point x="67" y="148" type="line"/>
    </contour>
  </outline>
</glyph>
